<svg width="17" height="17" viewBox="0 0 17 17" fill="none" xmlns="http://www.w3.org/2000/svg">
<path d="M8.2002 1.92773C9.09082 1.92773 9.93457 2.0918 10.7314 2.41992C11.5127 2.76367 12.2002 3.23242 12.7939 3.82617C13.3877 4.41992 13.8564 5.10742 14.2002 5.88867C14.5283 6.68555 14.6924 7.5293 14.6924 8.41992C14.6924 9.31055 14.5283 10.1543 14.2002 10.9512C13.8564 11.7324 13.3877 12.4199 12.7939 13.0137C12.2002 13.6074 11.5127 14.0762 10.7314 14.4199C9.93457 14.748 9.09082 14.9121 8.2002 14.9121C7.30957 14.9121 6.46582 14.748 5.66895 14.4199C4.8877 14.0762 4.2002 13.6074 3.60645 13.0137C3.0127 12.4199 2.54395 11.7324 2.2002 10.9512C1.87207 10.1543 1.70801 9.31055 1.70801 8.41992C1.70801 7.5293 1.87207 6.68555 2.2002 5.88867C2.54395 5.10742 3.0127 4.41992 3.60645 3.82617C4.2002 3.23242 4.8877 2.76367 5.66895 2.41992C6.46582 2.0918 7.30957 1.92773 8.2002 1.92773ZM8.2002 0.427734C7.09082 0.427734 6.05176 0.630859 5.08301 1.03711C4.11426 1.45898 3.2666 2.0332 2.54004 2.75977C1.81348 3.48633 1.23926 4.33398 0.817383 5.30273C0.411133 6.27148 0.208008 7.31055 0.208008 8.41992C0.208008 9.5293 0.411133 10.5684 0.817383 11.5371C1.23926 12.5059 1.81348 13.3535 2.54004 14.0801C3.2666 14.8066 4.11426 15.3809 5.08301 15.8027C6.05176 16.209 7.09082 16.4121 8.2002 16.4121C9.30957 16.4121 10.3486 16.209 11.3174 15.8027C12.2861 15.3809 13.1338 14.8066 13.8604 14.0801C14.5869 13.3535 15.1611 12.5059 15.583 11.5371C15.9893 10.5684 16.1924 9.5293 16.1924 8.41992C16.1924 7.31055 15.9893 6.27148 15.583 5.30273C15.1611 4.33398 14.5869 3.48633 13.8604 2.75977C13.1338 2.0332 12.2861 1.45898 11.3174 1.03711C10.3486 0.630859 9.30957 0.427734 8.2002 0.427734ZM8.36426 7.08398H7.87207C7.73145 7.08398 7.61035 7.13477 7.50879 7.23633C7.40723 7.33789 7.35645 7.45117 7.35645 7.57617V11.9121C7.35645 12.0527 7.40723 12.1738 7.50879 12.2754C7.61035 12.377 7.73145 12.4277 7.87207 12.4277H8.36426C8.50488 12.4277 8.62207 12.377 8.71582 12.2754C8.80957 12.1738 8.85645 12.0527 8.85645 11.9121V7.57617C8.85645 7.45117 8.80957 7.33789 8.71582 7.23633C8.62207 7.13477 8.50488 7.08398 8.36426 7.08398ZM8.85645 4.92773V5.25586C8.85645 5.39648 8.80957 5.51367 8.71582 5.60742C8.62207 5.70117 8.50488 5.74805 8.36426 5.74805H7.87207C7.73145 5.74805 7.61035 5.70117 7.50879 5.60742C7.40723 5.51367 7.35645 5.39648 7.35645 5.25586V4.92773C7.35645 4.78711 7.40723 4.66602 7.50879 4.56445C7.61035 4.46289 7.73145 4.41211 7.87207 4.41211H8.36426C8.50488 4.41211 8.62207 4.46289 8.71582 4.56445C8.80957 4.66602 8.85645 4.78711 8.85645 4.92773Z" fill="white"/>
</svg>
