<svg
  xmlns="http://www.w3.org/2000/svg"
  xmlns:xlink="http://www.w3.org/1999/xlink"
  id="Glyph"
  x="0px"
  y="0px"
  viewBox="0 0 48 48"
  xml:space="preserve"
>
  <g>
    <path
      d="M13,21.75h1.5c0.15002-0.27002,0.34998-0.53003,0.59003-0.75c-1.09003-1.01001-1.38-2.67004-0.61005-4.01001  l1.29004-2.22998c0.57623-1.00507,1.67609-1.62,2.81-1.62c0.32996,0,0.64996,0.04999,0.95996,0.13995  c0.33002-1.45001,1.63-2.52997,3.17004-2.52997h2.57996c1.54004,0,2.84003,1.07996,3.17004,2.52997  c0.31-0.08997,0.63-0.13995,0.95996-0.13995c1.1355,0,2.24121,0.63678,2.81,1.62c0.00085,0.00146,1.29004,2.22998,1.29004,2.22998  c0.76996,1.33997,0.47998,3-0.61005,4.01001c0.24005,0.21997,0.44,0.47998,0.59003,0.75H35  c1.84003,0,3.59003-0.92004,4.66998-2.46002c1.09003-1.54999,1.36005-3.52002,0.73999-5.25  c-0.87994-2.40997-3.21997-3.88-5.66998-3.77997c0.09003-2.11005-0.98999-4.16003-2.87-5.24005  C30.21002,4.06,28.21997,3.98999,26.52002,4.81c-2.01001-3.13-6.06-4.42999-9.55005-2.94  c-3.34998,1.41998-5.20996,4.91998-4.60999,8.41998c-2.58997,0.28998-4.72998,2.33002-5.06,5  c-0.20996,1.60004,0.31,3.22998,1.41998,4.48999C9.83002,21.02997,11.39001,21.75,13,21.75z"
    ></path>
    <circle
      cx="24"
      cy="21"
      r="2.25"
    ></circle>
    <path
      d="M29.87207,27.30371c0.45117-0.12109,0.8291-0.41064,1.0625-0.81543l1.28613-2.22656  c0.48242-0.83545,0.19531-1.90771-0.64069-2.39069c-0.66241-0.38287-0.65826-1.36163,0.00006-1.74213  c0.83594-0.48291,1.12305-1.55518,0.64062-2.39062l-1.28613-2.22656c-0.2334-0.40479-0.61133-0.69434-1.0625-0.81543  c-0.4502-0.12158-0.92279-0.05908-1.32806,0.17474C27.90594,15.23926,27.03613,14.78314,27.03613,14  c0-0.96484-0.78516-1.75-1.75-1.75h-2.57227c-0.96472,0-1.74976,0.78491-1.75,1.74957  c-0.00018,0.75702-0.85461,1.24805-1.50781,0.87152c-0.40527-0.23389-0.87793-0.29639-1.32812-0.1748  c-0.45117,0.12109-0.8291,0.41064-1.0625,0.81543l-1.28613,2.22656c-0.48236,0.83533-0.19537,1.90741,0.64026,2.39038  c0.66376,0.38367,0.66132,1.36035,0.00037,1.74243c-0.83594,0.48291-1.12305,1.55518-0.64062,2.39062l1.28613,2.22656  c0.2334,0.40479,0.61133,0.69434,1.0625,0.81543c0.45013,0.12103,0.92267,0.05957,1.32788-0.17468  c0.65717-0.37994,1.50806,0.11902,1.50806,0.87097c0,0.96484,0.78516,1.75,1.75,1.75H23.25v8.5h-3v1.5h7.5v-1.5h-3v-8.5h0.53613  c0.96472,0,1.74982-0.78497,1.75-1.74969c0.00012-0.76617,0.84625-1.25177,1.50781-0.8714  C28.94922,27.36328,29.42188,27.4248,29.87207,27.30371z M24,24.75c-2.06738,0-3.75-1.68213-3.75-3.75s1.68262-3.75,3.75-3.75  s3.75,1.68213,3.75,3.75S26.06738,24.75,24,24.75z"
    ></path>
    <path
      d="M29.25,32c0,1.80566,2.89258,2.75,5.75,2.75s5.75-0.94434,5.75-2.75C40.75,28.38867,29.25,28.38867,29.25,32z"
    ></path>
    <path
      d="M29.25,34.76001V36c0,1.81,2.89001,2.75,5.75,2.75s5.75-0.94,5.75-2.75v-1.23999  C39.35999,35.76996,37.16998,36.25,35,36.25S30.64001,35.76996,29.25,34.76001z"
    ></path>
    <path
      d="M29.25,38.76001V40c0,1.81,2.89001,2.75,5.75,2.75s5.75-0.94,5.75-2.75v-1.23999  C39.35999,39.76996,37.16998,40.25,35,40.25S30.64001,39.76996,29.25,38.76001z"
    ></path>
    <path
      d="M29.25,42.76001V44c0,1.81,2.89001,2.75,5.75,2.75s5.75-0.94,5.75-2.75v-1.23999  C39.35999,43.76996,37.16998,44.25,35,44.25S30.64001,43.76996,29.25,42.76001z"
    ></path>
    <path
      d="M7.25,32c0,1.80566,2.89258,2.75,5.75,2.75s5.75-0.94434,5.75-2.75C18.75,28.38867,7.25,28.38867,7.25,32z"
    ></path>
    <path
      d="M7.25,34.76001V36c0,1.81,2.89001,2.75,5.75,2.75s5.75-0.94,5.75-2.75v-1.23999C17.35999,35.76996,15.16998,36.25,13,36.25  S8.64001,35.76996,7.25,34.76001z"
    ></path>
    <path
      d="M7.25,38.76001V40c0,1.81,2.89001,2.75,5.75,2.75s5.75-0.94,5.75-2.75v-1.23999C17.35999,39.76996,15.16998,40.25,13,40.25  S8.64001,39.76996,7.25,38.76001z"
    ></path>
    <path
      d="M7.25,42.76001V44c0,1.81,2.89001,2.75,5.75,2.75s5.75-0.94,5.75-2.75v-1.23999C17.35999,43.76996,15.16998,44.25,13,44.25  S8.64001,43.76996,7.25,42.76001z"
    ></path>
  </g>
</svg>