<svg width="20" height="20" viewBox="0 0 20 20" fill="none" xmlns="http://www.w3.org/2000/svg">
<path d="M6.19141 1.02588V2.5083C6.19141 3.28695 6.46842 3.95329 7.02246 4.50732C7.5765 5.06136 8.24284 5.33838 9.02148 5.33838H9.78516C10.0697 5.33838 10.3242 5.42822 10.5488 5.60791C10.7734 5.7876 10.9082 6.01221 10.9531 6.28174H6.91016C5.68229 6.28174 4.72021 6.3042 4.02393 6.34912C3.32764 6.39404 2.75488 6.55876 2.30566 6.84326C2.03613 6.993 1.78906 7.18018 1.56445 7.40479C1.33984 7.62939 1.14518 7.87646 0.980469 8.146C0.710938 8.61019 0.553711 9.18669 0.508789 9.87549C0.463867 10.5643 0.441406 11.5226 0.441406 12.7505C0.441406 13.9933 0.463867 14.9591 0.508789 15.6479C0.553711 16.3368 0.710938 16.9058 0.980469 17.355C1.14518 17.6245 1.33984 17.8716 1.56445 18.0962C1.78906 18.3208 2.03613 18.5155 2.30566 18.6802C2.75488 18.9497 3.32764 19.1069 4.02393 19.1519C4.72021 19.1968 5.68229 19.2192 6.91016 19.2192H12.6602C13.888 19.2192 14.8501 19.1968 15.5464 19.1519C16.2427 19.1069 16.8154 18.9497 17.2646 18.6802C17.5342 18.5155 17.7812 18.3208 18.0059 18.0962C18.2305 17.8716 18.4251 17.6245 18.5898 17.355C18.8594 16.9058 19.0166 16.3368 19.0615 15.6479C19.1064 14.9591 19.1289 13.9933 19.1289 12.7505C19.1289 11.5226 19.1064 10.5643 19.0615 9.87549C19.0166 9.18669 18.8594 8.61019 18.5898 8.146C18.4251 7.87646 18.2305 7.62939 18.0059 7.40479C17.7812 7.18018 17.5342 6.993 17.2646 6.84326C16.8154 6.55876 16.2427 6.39404 15.5464 6.34912C14.8501 6.3042 13.888 6.28174 12.6602 6.28174H12.4131C12.3532 5.60791 12.0724 5.04264 11.5708 4.58594C11.0692 4.12923 10.474 3.90088 9.78516 3.90088H9.02148C8.63216 3.90088 8.30273 3.76237 8.0332 3.48535C7.76367 3.20833 7.62891 2.88265 7.62891 2.5083V1.02588C7.62891 0.891113 7.58398 0.775064 7.49414 0.677734C7.4043 0.580404 7.29199 0.531738 7.15723 0.531738H6.66309C6.52832 0.531738 6.41602 0.580404 6.32617 0.677734C6.23633 0.775064 6.19141 0.891113 6.19141 1.02588ZM4.14746 7.78662C4.47689 7.75667 4.86247 7.73796 5.3042 7.73047C5.74593 7.72298 6.28125 7.71924 6.91016 7.71924H12.6602C13.2891 7.71924 13.8244 7.72298 14.2661 7.73047C14.7078 7.73796 15.0934 7.75667 15.4229 7.78662C15.7223 7.81657 15.9582 7.85775 16.1304 7.91016C16.3026 7.96257 16.4336 8.01872 16.5234 8.07861C16.6882 8.16846 16.8416 8.2845 16.9839 8.42676C17.1261 8.56901 17.2497 8.72249 17.3545 8.88721C17.4144 8.99202 17.4668 9.12679 17.5117 9.2915C17.5566 9.45622 17.5941 9.6958 17.624 10.0103C17.654 10.3247 17.6727 10.7028 17.6802 11.1445C17.6877 11.5863 17.6914 12.1216 17.6914 12.7505C17.6914 13.3794 17.6877 13.9147 17.6802 14.3564C17.6727 14.7982 17.654 15.1838 17.624 15.5132C17.5941 15.8276 17.5566 16.0672 17.5117 16.2319C17.4668 16.3966 17.4144 16.5314 17.3545 16.6362C17.2497 16.8009 17.1261 16.9507 16.9839 17.0854C16.8416 17.2202 16.6882 17.34 16.5234 17.4448C16.4336 17.5047 16.3026 17.5609 16.1304 17.6133C15.9582 17.6657 15.7223 17.7069 15.4229 17.7368C15.0934 17.7668 14.7078 17.7817 14.2661 17.7817C13.8244 17.7817 13.2891 17.7817 12.6602 17.7817H6.91016C6.28125 17.7817 5.74593 17.7817 5.3042 17.7817C4.86247 17.7817 4.47689 17.7668 4.14746 17.7368C3.84798 17.7069 3.61214 17.6657 3.43994 17.6133C3.26774 17.5609 3.13672 17.5047 3.04688 17.4448C2.88216 17.34 2.72868 17.2202 2.58643 17.0854C2.44417 16.9507 2.32064 16.8009 2.21582 16.6362C2.15592 16.5314 2.10352 16.3966 2.05859 16.2319C2.01367 16.0672 1.97624 15.8276 1.94629 15.5132C1.91634 15.1838 1.89762 14.7982 1.89014 14.3564C1.88265 13.9147 1.87891 13.3794 1.87891 12.7505C1.87891 12.1216 1.88265 11.5863 1.89014 11.1445C1.89762 10.7028 1.91634 10.3247 1.94629 10.0103C1.97624 9.6958 2.01367 9.45622 2.05859 9.2915C2.10352 9.12679 2.15592 8.99202 2.21582 8.88721C2.32064 8.72249 2.44417 8.56901 2.58643 8.42676C2.72868 8.2845 2.88216 8.16846 3.04688 8.07861C3.13672 8.01872 3.26774 7.96257 3.43994 7.91016C3.61214 7.85775 3.84798 7.81657 4.14746 7.78662ZM5.22559 14.9067C5.22559 15.0415 5.27425 15.1576 5.37158 15.2549C5.46891 15.3522 5.58496 15.4009 5.71973 15.4009H6.19141C6.32617 15.4009 6.43848 15.3522 6.52832 15.2549C6.61816 15.1576 6.66309 15.0415 6.66309 14.9067V13.4692H8.10059C8.23535 13.4692 8.3514 13.4243 8.44873 13.3345C8.54606 13.2446 8.59473 13.1323 8.59473 12.9976V12.5259C8.59473 12.3911 8.54606 12.2751 8.44873 12.1777C8.3514 12.0804 8.23535 12.0317 8.10059 12.0317H6.66309V10.5942C6.66309 10.4595 6.61816 10.3472 6.52832 10.2573C6.43848 10.1675 6.32617 10.1226 6.19141 10.1226H5.71973C5.58496 10.1226 5.46891 10.1675 5.37158 10.2573C5.27425 10.3472 5.22559 10.4595 5.22559 10.5942V12.0317H3.78809C3.65332 12.0317 3.54102 12.0804 3.45117 12.1777C3.36133 12.2751 3.31641 12.3911 3.31641 12.5259V12.9976C3.31641 13.1323 3.36133 13.2446 3.45117 13.3345C3.54102 13.4243 3.65332 13.4692 3.78809 13.4692H5.22559V14.9067ZM10.751 13.7163C10.751 13.4468 10.8446 13.2184 11.0317 13.0312C11.2189 12.8441 11.4398 12.7505 11.6943 12.7505C11.9639 12.7505 12.1922 12.8441 12.3794 13.0312C12.5666 13.2184 12.6602 13.4468 12.6602 13.7163C12.6602 13.9858 12.5666 14.2142 12.3794 14.4014C12.1922 14.5885 11.9639 14.6821 11.6943 14.6821C11.4398 14.6821 11.2189 14.5885 11.0317 14.4014C10.8446 14.2142 10.751 13.9858 10.751 13.7163ZM14.5693 10.8413C14.3148 10.8413 14.0939 10.9349 13.9067 11.1221C13.7196 11.3092 13.626 11.5376 13.626 11.8071C13.626 12.0617 13.7196 12.2826 13.9067 12.4697C14.0939 12.6569 14.3148 12.7505 14.5693 12.7505C14.8389 12.7505 15.0672 12.6569 15.2544 12.4697C15.4416 12.2826 15.5352 12.0617 15.5352 11.8071C15.5352 11.5376 15.4416 11.3092 15.2544 11.1221C15.0672 10.9349 14.8389 10.8413 14.5693 10.8413Z" fill="currentColor"/>
</svg>
