<svg
  xmlns="http://www.w3.org/2000/svg"
  xmlns:xlink="http://www.w3.org/1999/xlink"
  id="Glyph"
  x="0px"
  y="0px"
  viewBox="0 0 48 48"
  xml:space="preserve"
>
  <g>
    <circle
      cx="24"
      cy="14"
      r="2.25"
    ></circle>
    <path
      d="M16.96814,22.10638l-4.5824-2.74945c-0.2373-0.14258-0.53418-0.14258-0.77148,0l-4.5824,2.74945L12,25.12305  L16.96814,22.10638z"
    ></path>
    <path
      d="M41.96814,22.10638l-4.5824-2.74945c-0.2373-0.14258-0.53418-0.14258-0.77148,0l-4.5824,2.74945L37,25.12305  L41.96814,22.10638z"
    ></path>
    <path
      d="M31.61426,29.64355L36.25,32.42499v-6.00342l-5-3.03534V25.25h-6.5v-2.5h0.53613c0.96472,0,1.74982-0.78497,1.75-1.74969  c0.00012-0.76617,0.84625-1.25177,1.50781-0.8714c0.40527,0.23438,0.87793,0.2959,1.32812,0.1748  c0.45117-0.12109,0.8291-0.41064,1.0625-0.81543l1.28613-2.22656c0.48242-0.83545,0.19531-1.90771-0.64069-2.39069  c-0.66241-0.38287-0.65826-1.36163,0.00006-1.74213c0.83594-0.48291,1.12305-1.55518,0.64062-2.39062l-1.28613-2.22656  c-0.2334-0.40479-0.61133-0.69434-1.0625-0.81543c-0.4502-0.12158-0.92279-0.05908-1.32806,0.17474  C27.90594,8.23926,27.03613,7.78314,27.03613,7c0-0.96484-0.78516-1.75-1.75-1.75h-2.57227  c-0.96472,0-1.74976,0.78491-1.75,1.74957c-0.00018,0.75702-0.85461,1.24805-1.50781,0.87152  c-0.40527-0.23389-0.87793-0.29639-1.32812-0.1748c-0.45117,0.12109-0.8291,0.41064-1.0625,0.81543l-1.28613,2.22656  c-0.48236,0.83533-0.19537,1.90741,0.64026,2.39038c0.66376,0.38367,0.66132,1.36035,0.00037,1.74243  c-0.83594,0.48291-1.12305,1.55518-0.64062,2.39062l1.28613,2.22656c0.2334,0.40479,0.61133,0.69434,1.0625,0.81543  c0.45013,0.12103,0.92267,0.05957,1.32788-0.17468c0.65717-0.37994,1.50806,0.11902,1.50806,0.87097  c0,0.96484,0.78516,1.75,1.75,1.75H23.25v2.5h-5.5v-1.86377l-5,3.03534v6.00342l4.63574-2.78143  C17.61182,29.50781,17.75,29.26367,17.75,29v-2.25h5.5v2.82501l-4.21881,2.53131L24,35.12305l4.96881-3.01672L24.75,29.57501V26.75  h6.5V29C31.25,29.26367,31.38818,29.50781,31.61426,29.64355z M24,17.75c-2.06738,0-3.75-1.68213-3.75-3.75s1.68262-3.75,3.75-3.75  s3.75,1.68213,3.75,3.75S26.06738,17.75,24,17.75z"
    ></path>
    <path
      d="M18.25,39c0,0.26367,0.13818,0.50781,0.36426,0.64355L23.25,42.42499v-6.00342l-5-3.03577V39z"
    ></path>
    <path
      d="M6.25,29c0,0.26367,0.13818,0.50781,0.36426,0.64355L11.25,32.42499v-6.00342l-5-3.03534V29z"
    ></path>
    <path
      d="M42.75,29v-5.61377l-5,3.03534v6.00342l4.63574-2.78143C42.61182,29.50781,42.75,29.26367,42.75,29z"
    ></path>
    <path
      d="M24.75,42.42499l4.63574-2.78143C29.61182,39.50781,29.75,39.26367,29.75,39v-5.6142l-5,3.03577V42.42499z"
    ></path>
    <path
      d="M11.87012,6.55469C15.42871,4.06543,19.62305,2.75,24,2.75c5.04193,0,9.80853,1.74792,13.62213,4.94385h-0.89459  c-0.41406,0-0.75,0.33594-0.75,0.75s0.33594,0.75,0.75,0.75h2.8291c0.41406,0,0.75-0.33594,0.75-0.75V5.61523  c0-0.41406-0.33594-0.75-0.75-0.75s-0.75,0.33594-0.75,0.75v1.13049C34.68671,3.20038,29.49951,1.25,24,1.25  c-4.68555,0-9.17773,1.40918-12.98926,4.0752c-0.33984,0.23779-0.42188,0.70508-0.18457,1.04443  C11.06348,6.71045,11.53125,6.79248,11.87012,6.55469z"
    ></path>
    <path
      d="M42.38477,38.80664h-1.13049C44.79962,34.68671,46.75,29.49951,46.75,24c0-4.68555-1.40918-9.17773-4.0752-12.98926  c-0.23779-0.33984-0.70508-0.42188-1.04443-0.18457c-0.34082,0.2373-0.42285,0.70508-0.18506,1.04395  C43.93457,15.42871,45.25,19.62305,45.25,24c0,5.04193-1.74792,9.80853-4.94385,13.62213v-0.89459  c0-0.41406-0.33594-0.75-0.75-0.75s-0.75,0.33594-0.75,0.75v2.8291c0,0.41406,0.33594,0.75,0.75,0.75h2.82861  c0.41406,0,0.75-0.33594,0.75-0.75S42.79883,38.80664,42.38477,38.80664z"
    ></path>
    <path
      d="M36.12988,41.44531C32.57129,43.93457,28.37695,45.25,24,45.25c-5.04193,0-9.80853-1.74792-13.62213-4.94385h0.89459  c0.41406,0,0.75-0.33594,0.75-0.75s-0.33594-0.75-0.75-0.75h-2.8291c-0.41406,0-0.75,0.33594-0.75,0.75v2.82861  c0,0.41406,0.33594,0.75,0.75,0.75s0.75-0.33594,0.75-0.75v-1.13049C13.31329,44.79962,18.50049,46.75,24,46.75  c4.68555,0,9.17773-1.40918,12.98926-4.0752c0.33984-0.23779,0.42188-0.70508,0.18457-1.04443  C36.93652,41.28955,36.46875,41.20752,36.12988,41.44531z"
    ></path>
    <path
      d="M2.75,24c0-5.04193,1.74792-9.80853,4.94385-13.62213v0.89459c0,0.41406,0.33594,0.75,0.75,0.75s0.75-0.33594,0.75-0.75  v-2.8291c0-0.41406-0.33594-0.75-0.75-0.75H5.61523c-0.41406,0-0.75,0.33594-0.75,0.75s0.33594,0.75,0.75,0.75h1.13049  C3.20038,13.31329,1.25,18.50049,1.25,24c0,4.68555,1.40918,9.17773,4.0752,12.98926  c0.23779,0.33984,0.70508,0.42188,1.04443,0.18457c0.34082-0.2373,0.42285-0.70508,0.18506-1.04395  C4.06543,32.57129,2.75,28.37695,2.75,24z"
    ></path>
  </g>
</svg>