<svg width="14" height="14" viewBox="0 0 14 14" fill="none" xmlns="http://www.w3.org/2000/svg">
<path d="M3.04727 1.76367C3.04727 2.13867 2.91836 2.45801 2.66055 2.72168C2.40273 2.98535 2.09049 3.11719 1.72383 3.11719C1.35716 3.11719 1.04492 2.98535 0.787109 2.72168C0.529297 2.45801 0.400391 2.13867 0.400391 1.76367C0.400391 1.38867 0.529297 1.06934 0.787109 0.805664C1.04492 0.541992 1.35716 0.410156 1.72383 0.410156C2.09049 0.410156 2.40273 0.541992 2.66055 0.805664C2.91836 1.06934 3.04727 1.38867 3.04727 1.76367ZM3.04727 7.16016C3.04727 7.53516 2.91836 7.85449 2.66055 8.11816C2.40273 8.38184 2.09049 8.51367 1.72383 8.51367C1.35716 8.51367 1.04492 8.38184 0.787109 8.11816C0.529297 7.85449 0.400391 7.53516 0.400391 7.16016C0.400391 6.78516 0.529297 6.46582 0.787109 6.20215C1.04492 5.93848 1.35716 5.80664 1.72383 5.80664C2.09049 5.80664 2.40273 5.93848 2.66055 6.20215C2.91836 6.46582 3.04727 6.78516 3.04727 7.16016ZM1.72383 13.9102C2.09049 13.9102 2.40273 13.7783 2.66055 13.5146C2.91836 13.251 3.04727 12.9316 3.04727 12.5566C3.04727 12.1816 2.91836 11.8623 2.66055 11.5986C2.40273 11.335 2.09049 11.2031 1.72383 11.2031C1.35716 11.2031 1.04492 11.335 0.787109 11.5986C0.529297 11.8623 0.400391 12.1816 0.400391 12.5566C0.400391 12.9316 0.529297 13.251 0.787109 13.5146C1.04492 13.7783 1.35716 13.9102 1.72383 13.9102ZM8.32383 1.76367C8.32383 2.13867 8.19492 2.45801 7.93711 2.72168C7.6793 2.98535 7.36706 3.11719 7.00039 3.11719C6.63372 3.11719 6.32148 2.98535 6.06367 2.72168C5.80586 2.45801 5.67695 2.13867 5.67695 1.76367C5.67695 1.38867 5.80586 1.06934 6.06367 0.805664C6.32148 0.541992 6.63372 0.410156 7.00039 0.410156C7.36706 0.410156 7.6793 0.541992 7.93711 0.805664C8.19492 1.06934 8.32383 1.38867 8.32383 1.76367ZM7.00039 8.51367C7.36706 8.51367 7.6793 8.38184 7.93711 8.11816C8.19492 7.85449 8.32383 7.53516 8.32383 7.16016C8.32383 6.78516 8.19492 6.46582 7.93711 6.20215C7.6793 5.93848 7.36706 5.80664 7.00039 5.80664C6.63372 5.80664 6.32148 5.93848 6.06367 6.20215C5.80586 6.46582 5.67695 6.78516 5.67695 7.16016C5.67695 7.53516 5.80586 7.85449 6.06367 8.11816C6.32148 8.38184 6.63372 8.51367 7.00039 8.51367ZM8.32383 12.5566C8.32383 12.9316 8.19492 13.251 7.93711 13.5146C7.6793 13.7783 7.36706 13.9102 7.00039 13.9102C6.63372 13.9102 6.32148 13.7783 6.06367 13.5146C5.80586 13.251 5.67695 12.9316 5.67695 12.5566C5.67695 12.1816 5.80586 11.8623 6.06367 11.5986C6.32148 11.335 6.63372 11.2031 7.00039 11.2031C7.36706 11.2031 7.6793 11.335 7.93711 11.5986C8.19492 11.8623 8.32383 12.1816 8.32383 12.5566ZM12.277 3.11719C12.6436 3.11719 12.9559 2.98535 13.2137 2.72168C13.4715 2.45801 13.6004 2.13867 13.6004 1.76367C13.6004 1.38867 13.4715 1.06934 13.2137 0.805664C12.9559 0.541992 12.6436 0.410156 12.277 0.410156C11.9103 0.410156 11.598 0.541992 11.3402 0.805664C11.0824 1.06934 10.9535 1.38867 10.9535 1.76367C10.9535 2.13867 11.0824 2.45801 11.3402 2.72168C11.598 2.98535 11.9103 3.11719 12.277 3.11719ZM13.6004 7.16016C13.6004 7.53516 13.4715 7.85449 13.2137 8.11816C12.9559 8.38184 12.6436 8.51367 12.277 8.51367C11.9103 8.51367 11.598 8.38184 11.3402 8.11816C11.0824 7.85449 10.9535 7.53516 10.9535 7.16016C10.9535 6.78516 11.0824 6.46582 11.3402 6.20215C11.598 5.93848 11.9103 5.80664 12.277 5.80664C12.6436 5.80664 12.9559 5.93848 13.2137 6.20215C13.4715 6.46582 13.6004 6.78516 13.6004 7.16016ZM12.277 13.9102C12.6436 13.9102 12.9559 13.7783 13.2137 13.5146C13.4715 13.251 13.6004 12.9316 13.6004 12.5566C13.6004 12.1816 13.4715 11.8623 13.2137 11.5986C12.9559 11.335 12.6436 11.2031 12.277 11.2031C11.9103 11.2031 11.598 11.335 11.3402 11.5986C11.0824 11.8623 10.9535 12.1816 10.9535 12.5566C10.9535 12.9316 11.0824 13.251 11.3402 13.5146C11.598 13.7783 11.9103 13.9102 12.277 13.9102Z" fill="white"/>
</svg>
