<svg
  xmlns="http://www.w3.org/2000/svg"
  xmlns:xlink="http://www.w3.org/1999/xlink"
  id="Glyph"
  x="0px"
  y="0px"
  viewBox="0 0 48 48"
  xml:space="preserve"
>
  <g>
    <path
      d="M29,35.25H19c-1.5166,0-2.75,1.2334-2.75,2.75v1c0,1.5166,1.2334,2.75,2.75,2.75h10c1.5166,0,2.75-1.2334,2.75-2.75v-1  C31.75,36.4834,30.5166,35.25,29,35.25z"
    ></path>
    <path
      d="M19,43.25c-0.09998,0-0.20001,0-0.29999-0.01001C19.58002,45.29999,21.63,46.75,24,46.75s4.41998-1.45001,5.29999-3.51001  C29.20001,43.25,29.09998,43.25,29,43.25H19z"
    ></path>
    <path
      d="M30.83008,19.83008c0.11914-0.06934,0.16113-0.22217,0.0918-0.3418l-1.28613-2.22656  c-0.06934-0.11865-0.2226-0.16113-0.34174-0.09186C27.64984,18.12592,25.53613,16.88739,25.53613,15  c0-0.1377-0.1123-0.25-0.25-0.25h-2.57227c-0.1377,0-0.24994,0.11224-0.25,0.24988  c-0.00061,1.89325-2.11481,3.12091-3.75781,2.17004c-0.12109-0.06934-0.27246-0.02686-0.3418,0.0918l-1.28613,2.22656  c-0.06934,0.11957-0.02734,0.27234,0.09167,0.34174c1.63934,0.9552,1.64581,3.38995,0.00012,4.3399  c-0.11914,0.06934-0.16113,0.22217-0.0918,0.3418l1.28613,2.22656c0.06934,0.11816,0.2207,0.16064,0.3418,0.0918  c0.39154-0.22656,0.82214-0.33984,1.25293-0.33984c1.36816,0,2.50488,1.14899,2.50488,2.50977c0,0.1377,0.1123,0.25,0.25,0.25  h2.57227c0.1377,0,0.25-0.1123,0.25-0.25006c0-1.89337,2.1156-3.12115,3.75781-2.16986  c0.11914,0.06885,0.27246,0.02637,0.3418-0.0918l1.28613-2.22656c0.06934-0.11963,0.02734-0.27246-0.0918-0.3418  C29.18628,23.22107,29.19049,20.77643,30.83008,19.83008z M24,25.75c-2.06738,0-3.75-1.68213-3.75-3.75s1.68262-3.75,3.75-3.75  s3.75,1.68213,3.75,3.75S26.06738,25.75,24,25.75z"
    ></path>
    <circle
      cx="24"
      cy="22"
      r="2.25"
    ></circle>
    <path
      d="M24,9.25c-7.03003,0-12.75,5.71997-12.75,12.75c0,3.98999,1.91998,7.81,5.12,10.20001c0.63,0.47998,1.12,1.06,1.44,1.71997  C18.19,33.81,18.59003,33.75,19,33.75h10c0.40997,0,0.81,0.06,1.19,0.16998c0.32001-0.65997,0.81-1.23999,1.44-1.71997  C34.83002,29.81,36.75,25.98999,36.75,22C36.75,14.96997,31.03003,9.25,24,9.25z M31.58008,22.87109  c0.83594,0.48291,1.12305,1.55518,0.64062,2.39062l-1.28613,2.22656c-0.2334,0.40479-0.61133,0.69434-1.0625,0.81543  c-0.4491,0.12054-0.92365,0.05957-1.32788-0.17468C27.88611,27.74768,27.03613,28.2475,27.03613,29  c0,0.96484-0.78516,1.75-1.75,1.75h-2.57227c-0.96472,0-1.74982-0.78497-1.75-1.74963  c-0.00012-0.75848-0.85156-1.24976-1.50781-0.87146c-0.4043,0.23438-0.87891,0.29541-1.32812,0.1748  c-0.45117-0.12109-0.8291-0.41064-1.0625-0.81543l-1.28613-2.22656c-0.48236-0.83539-0.19537-1.90747,0.64032-2.39044  c0.66327-0.38336,0.66113-1.36041,0.00031-1.74237c-0.83594-0.48291-1.12305-1.55518-0.64062-2.39062l1.28613-2.22656  c0.2334-0.40479,0.61133-0.69434,1.0625-0.81543c0.44916-0.12061,0.92371-0.05865,1.32794,0.17468  c0.66101,0.38147,1.508-0.11279,1.508-0.87097c0-0.96484,0.78516-1.75,1.75-1.75h2.57227c0.96472,0,1.74982,0.78497,1.75,1.74963  c0.00012,0.74756,0.86133,1.24414,1.50781,0.87146c0.4043-0.2334,0.87891-0.29541,1.32812-0.1748  c0.45117,0.12109,0.8291,0.41064,1.0625,0.81543l1.28613,2.22656c0.48236,0.83533,0.19537,1.90741-0.64032,2.39044  C30.91656,21.51239,30.91919,22.48907,31.58008,22.87109z"
    ></path>
    <path
      d="M24,6.75c0.41406,0,0.75-0.33594,0.75-0.75V2c0-0.41406-0.33594-0.75-0.75-0.75S23.25,1.58594,23.25,2v4  C23.25,6.41406,23.58594,6.75,24,6.75z"
    ></path>
    <path
      d="M8,21.25H4c-0.41406,0-0.75,0.33594-0.75,0.75S3.58594,22.75,4,22.75h4c0.41406,0,0.75-0.33594,0.75-0.75  S8.41406,21.25,8,21.25z"
    ></path>
    <path
      d="M15.35059,8.51855c0.20703,0.3584,0.66699,0.48242,1.02441,0.27441c0.35889-0.20703,0.48145-0.66602,0.27441-1.02441  c0,0-1.99988-3.46368-2-3.46387c-0.20532-0.35565-0.66913-0.47974-1.02411-0.2746c-0.35919,0.20721-0.48175,0.6662-0.27472,1.0246  L15.35059,8.51855z"
    ></path>
    <path
      d="M10.51855,13.35059l-3.46387-2c-0.35516-0.20551-0.81824-0.0827-1.02448,0.27454  c-0.20691,0.3584-0.08435,0.81726,0.27448,1.02429l3.46387,2c0.35791,0.20703,0.81787,0.08398,1.02441-0.27441  C11,14.0166,10.87744,13.55762,10.51855,13.35059z"
    ></path>
    <path
      d="M44,21.25h-4c-0.41406,0-0.75,0.33594-0.75,0.75s0.33594,0.75,0.75,0.75h4c0.41406,0,0.75-0.33594,0.75-0.75  S44.41406,21.25,44,21.25z"
    ></path>
    <path
      d="M41.96973,11.625c-0.20624-0.35706-0.66797-0.48059-1.02441-0.27441l-3.46387,2  C37.12305,13.55762,37,14.0166,37.20703,14.375c0.20605,0.35742,0.66504,0.4834,1.02441,0.27441l3.46387-2  C42.05371,12.44238,42.17676,11.9834,41.96973,11.625z"
    ></path>
    <path
      d="M31.625,8.79297c0.35938,0.20801,0.81836,0.08301,1.02441-0.27441l2-3.46387  c0.20703-0.3584,0.08398-0.81738-0.27441-1.02441c-0.35443-0.20502-0.81952-0.08044-1.02441,0.27441  c-0.00421,0.00726-2,3.46387-2,3.46387C31.14355,8.12695,31.2666,8.58594,31.625,8.79297z"
    ></path>
  </g>
</svg>