<svg
  xmlns="http://www.w3.org/2000/svg"
  xmlns:xlink="http://www.w3.org/1999/xlink"
  id="Glyph"
  x="0px"
  y="0px"
  viewBox="0 0 48 48"
  xml:space="preserve"
>
  <g>
    <polygon
      points="19.75,19.5752 23.25,21.67542 23.25,17.4245 19.75,15.32452  "
    ></polygon>
    <polygon
      points="24,11.87451 20.4577,14.00012 24,16.12549 27.5423,14.00012  "
    ></polygon>
    <polygon
      points="14.75,28.5752 18.25,30.67542 18.25,26.4245 14.75,24.32452  "
    ></polygon>
    <polygon
      points="24.75,21.67542 28.25,19.5752 28.25,15.32452 24.75,17.4245  "
    ></polygon>
    <polygon
      points="24.75,28.5752 28.25,30.67542 28.25,26.4245 24.75,24.32452  "
    ></polygon>
    <polygon
      points="19.75,30.67542 23.25,28.5752 23.25,24.32452 19.75,26.4245  "
    ></polygon>
    <polygon
      points="19,20.87451 15.4577,23.00012 19,25.12549 22.5423,23.00012  "
    ></polygon>
    <path
      d="M30.76367,5.75H17.23633c-1.27588,3.87744-4.45605,6.91455-8.48633,8.104v6.21729  c0,6.65576,3.37891,13.00195,9.03857,16.97607c0,0,0,0,0.00049,0.00049L24,41.41553l6.2124-4.36865  c5.57471-3.91504,9.0376-10.41943,9.0376-16.97559V13.854C35.21973,12.66455,32.03955,9.62744,30.76367,5.75z M34.75,23v6  c0,0.26367-0.13818,0.50781-0.36426,0.64307l-5,3c-0.24017,0.1441-0.53247,0.14349-0.7713,0.00012  C28.61426,32.64307,24,29.87451,24,29.87451l-4.61426,2.76855c-0.23962,0.14374-0.53149,0.1441-0.77136,0.00006  c-0.00012-0.00006-5.00012-3.00006-5.00012-3.00006C13.38818,29.50781,13.25,29.26367,13.25,29v-6  c0-0.26367,0.13818-0.50781,0.36426-0.64307L18.25,19.5755V14c0-0.26367,0.13818-0.50781,0.36426-0.64307l5-3  c0.2373-0.14258,0.53418-0.14258,0.77148,0l5,3C29.61182,13.49219,29.75,13.73633,29.75,14v5.5755l4.63574,2.78143  C34.61182,22.49219,34.75,22.73633,34.75,23z"
    ></path>
    <polygon
      points="29.75,30.67542 33.25,28.5752 33.25,24.32452 29.75,26.4245  "
    ></polygon>
    <path
      d="M43,9.89307c-4.59717,0-8.33691-3.54102-8.33691-7.89307c0-0.41406-0.33594-0.75-0.75-0.75H14.08691  c-0.41406,0-0.75,0.33594-0.75,0.75c0,4.35205-3.73975,7.89307-8.33691,7.89307c-0.41406,0-0.75,0.33594-0.75,0.75v9.42822  c0,8.12012,4.09375,15.84277,10.9502,20.65723c0,0,8.36816,5.88477,8.3683,5.88486c0.25937,0.18295,0.60403,0.18213,0.86314-0.0001  c0.00001-0.00001,8.36768-5.88428,8.36768-5.88428C39.65625,35.91357,43.75,28.19092,43.75,20.07129v-9.42822  C43.75,10.229,43.41406,9.89307,43,9.89307z M40.75,20.07129c0,7.03711-3.70703,14.01172-9.6748,18.20264  c0,0-6.64261,4.67121-6.64355,4.67188c-0.23973,0.16858-0.59888,0.18657-0.86328,0l-6.64209-4.6709  C10.86719,34.02051,7.25,27.21533,7.25,20.07129v-6.79102c0-0.34473,0.23535-0.64551,0.57031-0.72803  c3.96582-0.97949,7.0835-3.9502,8.13721-7.75244C16.04736,4.4751,16.34326,4.25,16.68018,4.25h14.63965  c0.33691,0,0.63281,0.2251,0.72266,0.5498c1.05371,3.80225,4.17139,6.77295,8.13721,7.75244  c0.33496,0.08252,0.57031,0.3833,0.57031,0.72803V20.07129z"
    ></path>
    <polygon
      points="25.4577,23.00012 29,25.12549 32.5423,23.00012 29,20.87451  "
    ></polygon>
  </g>
</svg>