<svg width="19" height="17" viewBox="0 0 19 17" fill="none" xmlns="http://www.w3.org/2000/svg">
<path d="M7.51953 9.70557C6.65104 9.70557 5.89111 9.98258 5.23975 10.5366C4.58838 11.0907 4.16536 11.772 3.9707 12.5806H1.27539C1.14062 12.5806 1.02832 12.6255 0.938477 12.7153C0.848633 12.8052 0.803711 12.925 0.803711 13.0747V13.5464C0.803711 13.6812 0.848633 13.7935 0.938477 13.8833C1.02832 13.9731 1.14062 14.0181 1.27539 14.0181H3.9707C4.10547 14.8416 4.51351 15.5267 5.19482 16.0732C5.87614 16.6198 6.65104 16.8931 7.51953 16.8931C8.52279 16.8931 9.38005 16.5374 10.0913 15.8262C10.8026 15.1149 11.1582 14.2576 11.1582 13.2544C11.1582 12.2511 10.8026 11.4089 10.0913 10.7275C9.38005 10.0462 8.52279 9.70557 7.51953 9.70557ZM7.51953 15.4556C6.93555 15.4556 6.43766 15.2497 6.02588 14.8379C5.6141 14.4261 5.4082 13.9282 5.4082 13.3442C5.4082 12.7752 5.6141 12.2811 6.02588 11.8618C6.43766 11.4425 6.93555 11.2329 7.51953 11.2329C8.08854 11.2329 8.58268 11.4425 9.00195 11.8618C9.42122 12.2811 9.63086 12.7752 9.63086 13.3442C9.63086 13.9282 9.42122 14.4261 9.00195 14.8379C8.58268 15.2497 8.08854 15.4556 7.51953 15.4556ZM1.27539 4.53955H5.11621C5.26595 4.53955 5.382 4.47966 5.46436 4.35986C5.54671 4.24007 5.58789 4.10531 5.58789 3.95557V3.57373C5.58789 3.43896 5.54671 3.32666 5.46436 3.23682C5.382 3.14697 5.26595 3.10205 5.11621 3.10205H1.27539C1.14062 3.05713 1.02832 3.09082 0.938477 3.20312C0.848633 3.31543 0.803711 3.43896 0.803711 3.57373V4.04541C0.803711 4.15023 0.848633 4.25879 0.938477 4.37109C1.02832 4.4834 1.14062 4.53955 1.27539 4.53955ZM17.582 12.5806H13.7412C13.5915 12.5806 13.4754 12.6255 13.3931 12.7153C13.3107 12.8052 13.2695 12.925 13.2695 13.0747V13.5464C13.2695 13.6812 13.3107 13.7935 13.3931 13.8833C13.4754 13.9731 13.5915 14.0181 13.7412 14.0181H17.582C17.7168 14.0181 17.8291 13.9731 17.9189 13.8833C18.0088 13.7935 18.0537 13.6812 18.0537 13.5464V13.0747C18.0537 12.9699 18.0088 12.8613 17.9189 12.749C17.8291 12.6367 17.7168 12.5806 17.582 12.5806ZM17.582 3.01221H14.8867C14.752 2.18864 14.3439 1.50358 13.6626 0.957031C12.9813 0.410482 12.2064 0.137207 11.3379 0.137207C10.3346 0.137207 9.47738 0.489096 8.76611 1.19287C8.05485 1.89665 7.69922 2.75765 7.69922 3.77588C7.69922 4.77913 8.05485 5.63639 8.76611 6.34766C9.47738 7.05892 10.3346 7.41455 11.3379 7.41455C12.2064 7.41455 12.9663 7.13753 13.6177 6.5835C14.269 6.02946 14.6921 5.34814 14.8867 4.53955H17.582C17.7168 4.53955 17.8291 4.49463 17.9189 4.40479C18.0088 4.31494 18.0537 4.19515 18.0537 4.04541V3.57373C18.0537 3.43896 18.0088 3.31169 17.9189 3.19189C17.8291 3.0721 17.7168 3.01221 17.582 3.01221ZM11.3379 5.88721C10.7689 5.88721 10.2747 5.67757 9.85547 5.2583C9.4362 4.83903 9.22656 4.34489 9.22656 3.77588C9.22656 3.19189 9.4362 2.69401 9.85547 2.28223C10.2747 1.87044 10.7689 1.66455 11.3379 1.66455C11.9219 1.66455 12.4198 1.87044 12.8315 2.28223C13.2433 2.69401 13.4492 3.19189 13.4492 3.77588C13.4492 4.34489 13.2433 4.83903 12.8315 5.2583C12.4198 5.67757 11.9219 5.88721 11.3379 5.88721Z" fill="white"/>
</svg>
