<svg xmlns="http://www.w3.org/2000/svg" xmlns:xlink="http://www.w3.org/1999/xlink" id="Glyph"
	x="0px" y="0px" viewBox="0 0 48 48" xml:space="preserve"><g>	<circle cx="24" cy="34" r="1.25"></circle>	<path d="M27.07593,41.00116C27.17963,40.68384,27.25,40.3515,27.25,40c0-1.79199-1.45801-3.25-3.25-3.25s-3.25,1.45801-3.25,3.25  c0,0.3515,0.07037,0.68384,0.17407,1.00116C21.84772,41.47656,22.89166,41.75,24,41.75S26.15228,41.47656,27.07593,41.00116z"></path>	<path d="M11.07593,41.00116C11.17963,40.68384,11.25,40.3515,11.25,40c0-1.79199-1.45801-3.25-3.25-3.25S4.75,38.20801,4.75,40  c0,0.3515,0.07037,0.68384,0.17407,1.00116C5.84772,41.47656,6.89166,41.75,8,41.75S10.15228,41.47656,11.07593,41.00116z"></path>	<circle cx="8" cy="34" r="1.25"></circle>	<path d="M43.07593,41.00116C43.17963,40.68384,43.25,40.3515,43.25,40c0-1.79199-1.45801-3.25-3.25-3.25s-3.25,1.45801-3.25,3.25  c0,0.3515,0.07037,0.68384,0.17407,1.00116C37.84772,41.47656,38.89166,41.75,40,41.75S42.15228,41.47656,43.07593,41.00116z"></path>	<path d="M40.75,28.29419V26c0-0.96484-0.78516-1.75-1.75-1.75H24.75v-2.5h0.53564c0.96484,0,1.75-0.78516,1.75-1.75  c0-0.36328,0.18799-0.68945,0.50293-0.87109c0.31592-0.18164,0.69141-0.18164,1.00537,0  c0.40527,0.23535,0.87598,0.29785,1.32812,0.1748c0.45166-0.12109,0.8291-0.41016,1.0625-0.81543l1.28662-2.22656  c0.48145-0.83594,0.19385-1.9082-0.64111-2.39062C31.26514,13.68945,31.07715,13.36328,31.07715,13  s0.18799-0.68945,0.50342-0.87109c0.83447-0.48242,1.12207-1.55469,0.64014-2.39062l-1.28564-2.22656  c-0.23389-0.40527-0.61133-0.69434-1.06299-0.81543c-0.45264-0.12305-0.92285-0.05957-1.32764,0.1748  c-0.31445,0.18164-0.69043,0.18164-1.00586,0C27.22363,6.68945,27.03564,6.36328,27.03564,6c0-0.96484-0.78516-1.75-1.75-1.75  h-2.57129c-0.96484,0-1.75,0.78516-1.75,1.75c0,0.36328-0.18799,0.68945-0.50293,0.87109  c-0.31592,0.18164-0.69141,0.18164-1.00537,0c-0.4043-0.23438-0.87598-0.29785-1.32812-0.1748  c-0.45166,0.12109-0.8291,0.41016-1.0625,0.81543l-1.28662,2.22656c-0.48145,0.83594-0.19385,1.9082,0.64111,2.39062  c0.31494,0.18164,0.50293,0.50781,0.50293,0.87109s-0.18799,0.68945-0.50342,0.87109  c-0.83447,0.48242-1.12207,1.55469-0.64014,2.39062l1.28564,2.22656c0.23389,0.40527,0.61133,0.69434,1.06299,0.81543  c0.45166,0.12207,0.92285,0.05957,1.32764-0.1748c0.31445-0.18164,0.69043-0.18164,1.00586,0  c0.31494,0.18164,0.50293,0.50781,0.50293,0.87109c0,0.96484,0.78516,1.75,1.75,1.75H23.25v2.5H9  c-0.96484,0-1.75,0.78516-1.75,1.75v2.29419c-3.37,0.37463-6,3.23785-6,6.70581c0,1.88037,0.77454,3.58203,2.01947,4.80725  c0.073-1.77979,1.12439-3.29797,2.63446-4.0481C5.50189,35.28094,5.25,34.67236,5.25,34c0-1.5166,1.2334-2.75,2.75-2.75  s2.75,1.2334,2.75,2.75c0,0.67236-0.25183,1.28094-0.65387,1.75916c1.51007,0.75012,2.5614,2.26831,2.6344,4.0481  C13.97546,38.58203,14.75,36.88037,14.75,35c0-3.46796-2.63-6.33118-6-6.70581V26c0-0.1377,0.1123-0.25,0.25-0.25h14.25v2.54419  c-3.37,0.37463-6,3.23785-6,6.70581c0,1.88037,0.77454,3.58203,2.01947,4.80725c0.073-1.77979,1.12439-3.29797,2.63446-4.0481  C21.50189,35.28094,21.25,34.67236,21.25,34c0-1.5166,1.2334-2.75,2.75-2.75s2.75,1.2334,2.75,2.75  c0,0.67236-0.25183,1.28094-0.65387,1.75916c1.51007,0.75012,2.5614,2.26831,2.6344,4.0481  C29.97546,38.58203,30.75,36.88037,30.75,35c0-3.46796-2.63-6.33118-6-6.70581V25.75H39c0.1377,0,0.25,0.1123,0.25,0.25v2.29419  c-3.37,0.37463-6,3.23785-6,6.70581c0,1.88037,0.77454,3.58203,2.01947,4.80725c0.073-1.77979,1.12439-3.29797,2.63446-4.0481  C37.50189,35.28094,37.25,34.67236,37.25,34c0-1.5166,1.2334-2.75,2.75-2.75s2.75,1.2334,2.75,2.75  c0,0.67236-0.25183,1.28094-0.65387,1.75916c1.51007,0.75012,2.5614,2.26831,2.6344,4.0481  C45.97546,38.58203,46.75,36.88037,46.75,35C46.75,31.53204,44.12,28.66882,40.75,28.29419z M24,16.75  c-2.06787,0-3.75-1.68262-3.75-3.75S21.93213,9.25,24,9.25s3.75,1.68262,3.75,3.75S26.06787,16.75,24,16.75z"></path>	<circle cx="24" cy="13" r="2.25"></circle>	<circle cx="40" cy="34" r="1.25"></circle></g></svg>