<svg width="24" height="24" viewBox="0 0 24 24" fill="none" xmlns="http://www.w3.org/2000/svg">
<path d="M20.1152 11.2847C20.1152 10.0737 19.8906 8.93115 19.4414 7.85693C18.9727 6.80225 18.3428 5.87939 17.5518 5.08838C16.7607 4.29736 15.8379 3.66748 14.7832 3.19873C13.7285 2.74951 12.5957 2.5249 11.3848 2.5249C10.1738 2.5249 9.03125 2.74951 7.95703 3.19873C6.90234 3.66748 5.97949 4.29736 5.18848 5.08838C4.39746 5.87939 3.76758 6.80225 3.29883 7.85693C2.84961 8.93115 2.625 10.0737 2.625 11.2847C2.625 12.4956 2.84961 13.6284 3.29883 14.6831C3.76758 15.7378 4.39746 16.6606 5.18848 17.4517C5.97949 18.2427 6.90234 18.8726 7.95703 19.3413C9.03125 19.7905 10.1738 20.0151 11.3848 20.0151C12.5957 20.0151 13.7285 19.7905 14.7832 19.3413C15.8379 18.8726 16.7607 18.2427 17.5518 17.4517C18.3428 16.6606 18.9727 15.7378 19.4414 14.6831C19.8906 13.6284 20.1152 12.4956 20.1152 11.2847ZM18.1816 19.4292C17.2637 20.1909 16.2236 20.7915 15.0615 21.231C13.8994 21.6704 12.6738 21.8901 11.3848 21.8901C9.91992 21.8901 8.54297 21.6167 7.25391 21.0698C5.94531 20.5034 4.8125 19.7417 3.85547 18.7847C2.89844 17.8276 2.14648 16.7046 1.59961 15.4155C1.0332 14.1265 0.75 12.7495 0.75 11.2847C0.75 9.81982 1.0332 8.43311 1.59961 7.12451C2.14648 5.83545 2.89844 4.7124 3.85547 3.75537C4.8125 2.79834 5.94531 2.03662 7.25391 1.47021C8.54297 0.92334 9.91992 0.649902 11.3848 0.649902C12.8496 0.649902 14.2266 0.92334 15.5156 1.47021C16.8047 2.03662 17.9277 2.79834 18.8848 3.75537C19.8418 4.7124 20.6035 5.83545 21.1699 7.12451C21.7168 8.43311 21.9902 9.81982 21.9902 11.2847C21.9902 12.5737 21.7705 13.7993 21.3311 14.9614C20.8916 16.1235 20.291 17.1636 19.5293 18.0815L23.4844 22.0366C23.6016 22.1733 23.6602 22.3247 23.6602 22.4907C23.6602 22.6567 23.6016 22.7983 23.4844 22.9155L23.0156 23.3843C22.8984 23.5015 22.7568 23.5601 22.5908 23.5601C22.4248 23.5601 22.2734 23.5015 22.1367 23.3843L18.1816 19.4292Z" fill="white"/>
</svg>
