<svg
  xmlns="http://www.w3.org/2000/svg"
  xmlns:xlink="http://www.w3.org/1999/xlink"
  id="Glyph"
  x="0px"
  y="0px"
  viewBox="0 0 48 48"
  xml:space="preserve"
>
  <g>
    <path
      d="M34,21.25H14c-1.5166,0-2.75,1.2334-2.75,2.75s1.2334,2.75,2.75,2.75h20c1.5166,0,2.75-1.2334,2.75-2.75  S35.5166,21.25,34,21.25z"
    ></path>
    <path
      d="M34.46973,40.46973L33.75,41.18945V37c0-0.41406-0.33594-0.75-0.75-0.75s-0.75,0.33594-0.75,0.75v4.18945l-0.71973-0.71973  c-0.29297-0.29297-0.76758-0.29297-1.06055,0s-0.29297,0.76758,0,1.06055c0,0,1.99834,1.99834,2,2  c0.29173,0.29173,0.76981,0.29073,1.06055,0l2-2c0.29297-0.29297,0.29297-0.76758,0-1.06055S34.7627,40.17676,34.46973,40.46973z"
    ></path>
    <path
      d="M16.46973,40.46973L15.75,41.18945V37c0-0.41406-0.33594-0.75-0.75-0.75s-0.75,0.33594-0.75,0.75v4.18945l-0.71973-0.71973  c-0.29297-0.29297-0.76758-0.29297-1.06055,0s-0.29297,0.76758,0,1.06055c0,0,1.99501,1.99501,1.99999,1.99999  c0.29241,0.29241,0.77049,0.29008,1.06056,0.00001l2-2c0.29297-0.29297,0.29297-0.76758,0-1.06055  S16.7627,40.17676,16.46973,40.46973z"
    ></path>
    <polygon
      points="14.65991,28.25 19.55963,35.25 28.44037,35.25 33.34009,28.25  "
    ></polygon>
    <path
      d="M20.25,46c0.00013,0.54999,0.59618,0.9144,1.08545,0.67089l6-3C27.58936,43.54395,27.75,43.28418,27.75,43v-6.25h-7.5  C20.25,36.75,20.25,45.9528,20.25,46z"
    ></path>
    <path
      d="M37,1.25H11C9.4834,1.25,8.25,2.4834,8.25,4v6c0,1.5166,1.2334,2.75,2.75,2.75h12.25v1.61707  c-0.91064,0.26025-1.62268,0.97229-1.88293,1.88293h-4.73413c-0.32886-1.15063-1.37805-2-2.63293-2  c-1.5166,0-2.75,1.2334-2.75,2.75s1.2334,2.75,2.75,2.75c1.25488,0,2.30408-0.84937,2.63293-2h4.73413  c0.32886,1.15063,1.37805,2,2.63293,2s2.30408-0.84937,2.63293-2h5.73413c0.32886,1.15063,1.37805,2,2.63293,2  c1.5166,0,2.75-1.2334,2.75-2.75s-1.2334-2.75-2.75-2.75c-1.25488,0-2.30408,0.84937-2.63293,2h-5.73413  c-0.26025-0.91064-0.97229-1.62268-1.88293-1.88293V12.75H37c1.5166,0,2.75-1.2334,2.75-2.75V4C39.75,2.4834,38.5166,1.25,37,1.25z   M13,9.75c-0.41418,0-0.75-0.33582-0.75-0.75c0-0.41425,0.33582-0.75,0.75-0.75S13.75,8.58575,13.75,9  C13.75,9.41418,13.41418,9.75,13,9.75z M13,5.75c-0.41418,0-0.75-0.33582-0.75-0.75c0-0.41425,0.33582-0.75,0.75-0.75  S13.75,4.58575,13.75,5C13.75,5.41418,13.41418,5.75,13,5.75z M16,9.75c-0.41418,0-0.75-0.33582-0.75-0.75  c0-0.41425,0.33582-0.75,0.75-0.75S16.75,8.58575,16.75,9C16.75,9.41418,16.41418,9.75,16,9.75z M16,5.75  c-0.41418,0-0.75-0.33582-0.75-0.75c0-0.41425,0.33582-0.75,0.75-0.75S16.75,4.58575,16.75,5C16.75,5.41418,16.41418,5.75,16,5.75z   M19,9.75c-0.41418,0-0.75-0.33582-0.75-0.75c0-0.41425,0.33582-0.75,0.75-0.75S19.75,8.58575,19.75,9  C19.75,9.41418,19.41418,9.75,19,9.75z M19,5.75c-0.41418,0-0.75-0.33582-0.75-0.75c0-0.41425,0.33582-0.75,0.75-0.75  S19.75,4.58575,19.75,5C19.75,5.41418,19.41418,5.75,19,5.75z M32.75,9.75c-1.25488,0-2.30408-0.84937-2.63293-2H24.75  C24.33594,7.75,24,7.41406,24,7s0.33594-0.75,0.75-0.75h5.36707c0.32886-1.15063,1.37805-2,2.63293-2  c1.5166,0,2.75,1.2334,2.75,2.75S34.2666,9.75,32.75,9.75z"
    ></path>
    <circle
      cx="32.75"
      cy="7"
      r="1.25"
    ></circle>
  </g>
</svg>