<svg xmlns="http://www.w3.org/2000/svg" xmlns:xlink="http://www.w3.org/1999/xlink" id="Glyph"
	x="0px" y="0px" viewBox="0 0 48 48" xml:space="preserve"><g>	<path d="M23.63867,12.34277l-9.66132,5.31372l4.94971,2.71051l9.78735-5.63007l-4.35309-2.39417  C24.13672,12.21875,23.86328,12.21875,23.63867,12.34277z"></path>	<polygon points="24,23.14502 34.02264,17.65649 30.25195,15.58264 20.4679,21.21075  "></polygon>	<path d="M13.25,29.5c0,0.27344,0.14893,0.52539,0.38867,0.65723L23.25,35.44348V24.44434l-10-5.47607V29.5z"></path>	<path d="M24.75,35.44348l9.61133-5.28625C34.60156,30.02539,34.75,29.77344,34.75,29.5V18.96826l-10,5.47607V35.44348z"></path>	<path d="M23.25,8.66998V10.88c0.23999-0.08002,0.48999-0.13,0.75-0.13s0.51001,0.04999,0.75,0.13V8.66998  c1.71002-0.34003,3-1.85999,3-3.66998c0-2.07001-1.67999-3.75-3.75-3.75S20.25,2.92999,20.25,5  C20.25,6.81,21.53998,8.32996,23.25,8.66998z"></path>	<path d="M33.44,15.62L35.37,13.69c1.45001,0.96997,3.44,0.81,4.72003-0.47003c1.45996-1.46997,1.45996-3.83997,0-5.31  c-1.47003-1.45996-3.84003-1.45996-5.31,0C33.5,9.19,33.34003,11.17999,34.31,12.63L32.07001,14.87L33.44,15.62z"></path>	<path d="M43,20.25c-1.81,0-3.33002,1.28998-3.66998,3H36.25v1.5h3.08002c0.33997,1.70996,1.85999,3,3.66998,3  c2.07001,0,3.75-1.67999,3.75-3.75S45.07001,20.25,43,20.25z"></path>	<path d="M35.37,34.31l-1.94-1.94L32.07001,33.13L34.31,35.37c-0.96997,1.45001-0.81,3.44,0.47003,4.71997  c1.46997,1.46002,3.83997,1.46002,5.31,0c1.45996-1.46997,1.45996-3.83997,0-5.31C38.81,33.5,36.82001,33.33997,35.37,34.31z"></path>	<path d="M24.75,39.32996V37.12c-0.23999,0.08002-0.48999,0.13-0.75,0.13s-0.51001-0.04999-0.75-0.13v2.20996  c-1.71002,0.34003-3,1.86005-3,3.67004c0,2.07001,1.67999,3.75,3.75,3.75s3.75-1.67999,3.75-3.75  C27.75,41.19,26.46002,39.66998,24.75,39.32996z"></path>	<path d="M14.57001,32.37l-1.94,1.94c-1.45001-0.97003-3.44-0.81-4.72003,0.46997c-1.45996,1.47003-1.45996,3.84003,0,5.31  c1.47003,1.46002,3.84003,1.46002,5.31,0C14.5,38.81,14.65997,36.82001,13.69,35.37L15.92999,33.13L14.57001,32.37z"></path>	<path d="M8.66998,24.75H11.75v-1.5H8.66998C8.33002,21.53998,6.81,20.25,5,20.25c-2.07001,0-3.75,1.67999-3.75,3.75  S2.92999,27.75,5,27.75C6.81,27.75,8.33002,26.45996,8.66998,24.75z"></path>	<path d="M12.63,13.69l1.94,1.94L15.92999,14.87L13.69,12.63c0.96997-1.45001,0.81-3.44-0.47003-4.72003  c-1.46997-1.45996-3.83997-1.45996-5.31,0c-1.45996,1.47003-1.45996,3.84003,0,5.31C9.19,14.5,11.17999,14.65997,12.63,13.69z"></path></g></svg>